<svg width="12" height="12" viewBox="0 0 12 12" fill="none" xmlns="http://www.w3.org/2000/svg">
<path fill-rule="evenodd" clip-rule="evenodd" d="M0.673361 0.673391C1.03785 0.308902 1.6288 0.308902 1.99329 0.673391L5.99999 4.68009L10.0067 0.673391C10.3712 0.308902 10.9621 0.308902 11.3266 0.673391C11.6911 1.03788 11.6911 1.62883 11.3266 1.99332L7.31993 6.00002L11.3266 10.0067C11.6911 10.3712 11.6911 10.9622 11.3266 11.3267C10.9621 11.6911 10.3712 11.6911 10.0067 11.3267L5.99999 7.31996L1.99329 11.3267C1.6288 11.6911 1.03785 11.6911 0.673361 11.3267C0.308872 10.9622 0.308872 10.3712 0.673361 10.0067L4.68006 6.00002L0.673361 1.99332C0.308872 1.62883 0.308872 1.03788 0.673361 0.673391Z" fill="#171717"/>
</svg>
