<svg width="16" height="16" viewBox="0 0 16 16" fill="none" xmlns="http://www.w3.org/2000/svg">
<path d="M10.3333 4.11111C11.1924 4.11111 11.8889 4.80756 11.8889 5.66667M15 5.66667C15 8.244 12.9107 10.3333 10.3333 10.3333C9.86187 10.3333 9.40673 10.2634 8.97772 10.1334L7.22222 11.8889H5.66667V13.4444H4.11111V15H1.77778C1.34822 15 1 14.6518 1 14.2222V12.2111C1 12.0048 1.08194 11.8069 1.22781 11.6611L5.86661 7.02228C5.73658 6.59327 5.66667 6.13813 5.66667 5.66667C5.66667 3.08934 7.756 1 10.3333 1C12.9107 1 15 3.08934 15 5.66667Z" stroke="#171717" stroke-width="1.67" stroke-linecap="round" stroke-linejoin="round"/>
</svg>
