<svg width="24" height="25" viewBox="0 0 24 25" fill="none" xmlns="http://www.w3.org/2000/svg">
<path d="M17 21.377V19.377C17 18.3161 16.5786 17.2987 15.8284 16.5485C15.0783 15.7984 14.0609 15.377 13 15.377H5C3.93913 15.377 2.92172 15.7984 2.17157 16.5485C1.42143 17.2987 1 18.3161 1 19.377V21.377" stroke="#060606" stroke-width="2" stroke-linecap="round" stroke-linejoin="round"/>
<path d="M9 11.377C11.2091 11.377 13 9.58609 13 7.37695C13 5.16781 11.2091 3.37695 9 3.37695C6.79086 3.37695 5 5.16781 5 7.37695C5 9.58609 6.79086 11.377 9 11.377Z" stroke="#060606" stroke-width="2" stroke-linecap="round" stroke-linejoin="round"/>
<path d="M23 21.3778V19.3778C22.9993 18.4915 22.7044 17.6306 22.1614 16.9301C21.6184 16.2297 20.8581 15.7294 20 15.5078" stroke="#060606" stroke-width="2" stroke-linecap="round" stroke-linejoin="round"/>
<path d="M16 3.50781C16.8604 3.72811 17.623 4.22851 18.1676 4.93012C18.7122 5.63173 19.0078 6.49464 19.0078 7.38281C19.0078 8.27098 18.7122 9.13389 18.1676 9.8355C17.623 10.5371 16.8604 11.0375 16 11.2578" stroke="#060606" stroke-width="2" stroke-linecap="round" stroke-linejoin="round"/>
</svg>
