<svg width="78" height="79" viewBox="0 0 78 79" fill="none" xmlns="http://www.w3.org/2000/svg">
<path d="M11.3062 50.4943C7.22219 40.1963 9.23111 28.8479 15.9118 20.6778L15.8477 25.2447L25.0354 25.4378L25.3848 5.18077L5.14455 4.83692L4.95352 14.0315L9.4233 14.0931C0.170788 24.8363 -2.70935 40.0848 2.76309 53.8861C8.75082 68.9967 23.2085 78.5 38.9031 78.5C41.5519 78.5 44.237 78.2287 46.9222 77.6686L45.0447 68.6659C30.8456 71.6309 16.6542 63.9885 11.3062 50.4943ZM75.2351 25.1085C68.2345 7.45777 49.6665 -2.54511 31.0853 1.32893L32.959 10.3323C47.1551 7.37368 61.3452 15.0134 66.6933 28.5004C70.781 38.8068 68.7695 50.1648 62.0812 58.3366L62.1389 53.7313L52.9499 53.5574L52.6364 73.8128L72.8734 74.1239L73.0465 64.9294L68.61 64.8735C77.8369 54.133 80.7041 38.8999 75.2343 25.11L75.2351 25.1085Z" fill="black"/>
</svg>
